<?xml version="1.0" encoding="UTF-8" standalone="no"?>
<!-- Created with Inkscape (http://www.inkscape.org/) -->

<svg
   width="295.84937mm"
   height="564.73505mm"
   viewBox="0 0 295.84937 564.73505"
   version="1.1"
   id="svg1"
   xmlns:inkscape="http://www.inkscape.org/namespaces/inkscape"
   xmlns:sodipodi="http://sodipodi.sourceforge.net/DTD/sodipodi-0.dtd"
   xmlns="http://www.w3.org/2000/svg"
   xmlns:svg="http://www.w3.org/2000/svg">
  <sodipodi:namedview
     id="namedview1"
     pagecolor="#ffffff"
     bordercolor="#666666"
     borderopacity="1.0"
     inkscape:showpageshadow="2"
     inkscape:pageopacity="0.0"
     inkscape:pagecheckerboard="0"
     inkscape:deskcolor="#d1d1d1"
     inkscape:document-units="mm" />
  <defs
     id="defs1" />
  <g
     inkscape:label="Capa 1"
     inkscape:groupmode="layer"
     id="layer1"
     transform="translate(-87.841742,143.40421)">
    <path
       style="fill:#000000;stroke-width:0.264583"
       d="m 222.35388,420.53931 c -6.6075,-7.0957 16.80308,-38.54595 30.46783,-40.93109 1.63763,-0.28586 4.12678,-1.02415 5.53143,-1.64065 1.40467,-0.61651 3.35775,-1.40441 4.34017,-1.75088 0.98242,-0.3465 3.29438,-1.33808 5.13763,-2.20351 1.84327,-0.86542 3.98639,-1.77493 4.7625,-2.02115 0.77612,-0.24619 4.82425,-2.17482 8.99583,-4.28583 32.91422,-16.65605 58.41375,-47.90963 67.02192,-82.14569 4.21272,-16.75458 5.09654,-23.95159 4.9821,-40.56943 -0.10199,-14.81135 -0.18796,-15.72707 -1.827,-19.46148 -0.77628,-1.76869 -1.17909,-3.48205 -1.53947,-6.54825 -0.63297,-5.38531 -2.1027,-11.12817 -3.38093,-13.21075 -0.55687,-0.90734 -1.43888,-3.05046 -1.96003,-4.7625 -0.52118,-1.71207 -1.42045,-3.80185 -1.9984,-4.64397 -1.39369,-2.03065 -4.939,-9.00877 -5.55535,-10.93446 -0.30308,-0.94684 -1.35742,-2.49227 -2.76781,-4.05694 -3.41818,-3.79211 -4.14515,-4.92643 -5.39303,-8.41496 -1.52638,-4.26713 -2.21316,-5.2123 -4.62343,-6.36289 -2.37691,-1.13469 -4.89614,-4.08371 -8.15763,-9.54942 -1.55861,-2.61197 -2.36414,-3.60328 -3.34566,-4.11742 -2.26737,-1.18766 -8.60975,-7.6962 -9.88055,-10.13934 -1.16236,-2.23475 -2.3486,-3.35803 -3.95525,-3.74536 -1.30067,-0.31356 -3.42617,-1.82422 -6.57352,-4.67206 -1.51562,-1.37137 -3.59191,-2.94595 -4.61397,-3.49904 -1.02208,-0.55308 -2.43967,-1.71508 -3.1502,-2.5822 -0.79751,-0.97327 -2.00404,-1.90262 -3.15283,-2.42856 -1.02352,-0.46857 -2.61927,-1.47859 -3.54611,-2.24451 -0.92686,-0.76592 -1.85536,-1.39256 -2.06335,-1.39256 -0.20802,0 -1.16343,-0.3824 -2.12315,-0.84976 -0.95972,-0.46736 -2.98101,-1.41219 -4.49175,-2.0996 -1.86232,-0.84741 -3.45268,-1.91884 -4.9389,-3.32729 -2.10635,-1.99621 -6.01242,-4.65945 -6.83376,-4.65945 -0.21693,0 -1.21994,-0.56787 -2.22891,-1.2619 -1.25833,-0.86559 -2.46178,-1.35766 -3.83193,-1.56681 -1.09863,-0.16769 -3.1881,-0.48974 -4.6433,-0.71567 -2.38255,-0.36986 -4.33944,-0.61569 -10.11204,-1.27027 -2.75777,-0.31273 -4.66777,8.60481 -3.30787,15.44418 0.33316,1.67558 0.47236,9.60192 0.54756,31.17464 0.0746,21.40434 0.21587,29.51165 0.54316,31.17286 0.31073,1.577 0.37433,3.97 0.21376,8.04164 -0.12573,3.18807 -0.0654,10.51216 0.13414,16.27571 0.1995,5.76358 0.43087,20.16297 0.51416,31.99866 0.0833,11.83568 0.22188,27.07568 0.30806,33.86666 0.11771,9.2805 0.0414,12.96057 -0.30729,14.81667 -2.35273,12.52432 -18.30845,33.98102 -29.25823,39.3455 -5.37226,2.63194 -22.5802,2.65848 -25.88641,0.0399 -1.29911,-1.02892 -1.60049,-1.10946 -4.17171,-1.11485 -2.31487,-0.005 -3.00395,-0.14809 -4.18259,-0.86948 -1.45418,-0.89003 -2.8221,-1.57453 -4.89958,-2.45165 -0.65746,-0.2776 -1.99586,-1.21563 -2.97421,-2.08455 -1.15268,-1.02375 -2.4393,-1.77355 -3.65527,-2.13021 -1.03206,-0.30274 -2.4326,-0.93128 -3.11229,-1.39676 -1.39256,-0.95372 -5.79216,-2.82411 -7.95729,-3.38291 -2.56585,-0.6622 -7.77764,-4.74348 -10.04949,-7.86956 -0.52654,-0.72453 -1.94318,-2.0584 -3.14809,-2.96415 -1.20491,-0.90575 -2.26425,-1.83833 -2.35408,-2.0724 -0.0898,-0.23411 -1.28516,-1.26244 -2.65628,-2.28524 -1.51315,-1.12871 -2.85771,-2.4821 -3.42098,-3.44336 -0.51038,-0.87109 -1.72215,-2.47761 -2.6928,-3.5701 -2.85882,-3.21763 -4.4409,-5.58012 -5.53149,-8.25998 -0.74043,-1.81943 -1.59395,-3.11068 -3.07742,-4.65555 -1.12905,-1.17579 -2.37193,-2.76961 -2.76196,-3.5418 -1.22787,-2.43107 -3.22982,-7.68236 -3.62847,-9.51788 -0.21068,-0.97015 -1.11111,-3.1129 -2.00091,-4.7617 -2.51441,-4.65924 -2.9456,-6.22742 -3.30419,-12.01706 -0.25374,-4.09633 -0.51284,-5.70445 -1.27897,-7.9375 l -0.96076,-2.8004 0.0295,-11.2889 c 0.0632,-24.20424 5.1221,-43.3341 18.61534,-70.39219 15.68638,-31.45604 47.46718,-68.176347 69.74578,-80.585966 10.15146,-5.654569 11.30078,-6.903112 11.47742,-12.468225 0.072,-2.267664 0.27024,-5.375804 0.44055,-6.906948 0.21739,-1.954159 0.17082,-3.741684 -0.15621,-5.997231 -0.34639,-2.389029 -0.46519,-8.778716 -0.4632,-24.909145 0.003,-26.52575369 -0.20683,-38.523264 -0.78685,-44.928516 -0.35967,-3.972105 -0.3557,-5.936642 0.0212,-10.482194 0.33978,-4.097335 0.38277,-7.650247 0.16079,-13.279813 -0.34798,-8.82446 -0.47295,-16.801761 -0.4721,-30.133962 0,-7.45649 -0.10607,-9.65069 -0.51641,-10.632784 l -0.51705,-1.237458 -5.59044,-0.251672 c -6.44485,-0.290134 -8.29847,-0.573424 -10.59373,-1.619038 -1.54257,-0.702726 -1.82758,-0.723948 -4.22198,-0.314376 -2.00356,0.342723 -3.79121,0.351065 -8.13649,0.03797 -15.29088,-1.101775 -18.57269,-1.177055 -24.08963,-0.552585 -5.22851,0.591825 -8.87854,0.633741 -11.93913,0.137105 -9.68939,-1.572268 -23.95279,4.266273 -31.63158,12.947996 -20.991932,23.733709 -21.703555,4.68336 -0.8406,-22.503318 12.68507,-16.53001 25.98369,-25.39836 41.41268,-27.61656 6.88814,-0.9903 10.98802,-1.67985 15.01551,-2.52543 4.69492,-0.98571 6.66048,-1.0439 12.51169,-0.37042 2.32254,0.26732 5.73093,0.51114 7.5742,0.54182 11.83257,0.19692 20.88322,0.87585 23.86624,1.79032 2.04451,0.62676 2.36172,0.63413 5.46806,0.12703 1.8137,-0.29608 4.01201,-0.45126 4.88514,-0.34485 0.87312,0.1064 3.57187,0.46044 5.99723,0.78674 2.42535,0.3263 5.20348,0.53113 6.1736,0.45517 5.0001,-0.3915 12.34948,-0.034 14.54097,0.70731 2.63327,0.89076 4.99819,0.93234 9.7586,0.17157 2.59009,-0.41392 4.39291,-0.49755 6.56849,-0.30471 4.45175,0.3946 6.62295,0.36995 9.17224,-0.10413 1.26116,-0.23454 4.67428,-0.43011 7.5847,-0.43461 3.38407,-0.005 6.05472,-0.19242 7.40833,-0.51926 1.16417,-0.2811 3.37204,-0.51675 4.90638,-0.52366 3.41136,-0.0154 9.47227,-1.11755 13.96725,-2.53995 2.92656,-0.92609 3.93272,-1.06919 7.9375,-1.12892 4.23386,-0.0631 4.88416,-0.16716 8.46667,-1.35422 9.04862,-2.99827 16.26412,-4.9386 19.40277,-5.21762 2.53727,-0.22556 3.81272,-0.56252 6.35,-1.67766 1.74625,-0.76748 4.28625,-1.75415 5.64443,-2.19259 1.35821,-0.43844 4.20132,-1.76064 6.31804,-2.93822 8.76025,-4.87354 10.47607,-2.44467 6.92624,9.80467 -2.31921,8.00275 -4.18254,16.25728 -4.77803,21.16667 -0.30597,2.52236 -0.78822,6.13287 -1.07167,8.02337 -0.65757,4.385491 -0.66659,12.389488 -0.0175,15.612738 0.27348,1.358193 0.59053,5.406318 0.70459,8.995833 0.19812,6.234978 0.77674,13.955945 1.08305,14.451536 0.0794,0.128455 0.3865,2.525345 0.68246,5.326425 0.29599,2.801078 0.70178,5.947976 0.90178,6.993104 0.20003,1.045128 0.36364,3.670837 0.36364,5.834909 0,2.711138 0.19199,4.588502 0.61738,6.037265 1.47992,5.040334 0.5207,27.119651 -1.50735,34.6958046 -0.48771,1.8219631 -1.28294,5.07633806 -1.76716,7.2319461 -5.17644,23.0442473 -22.51755,51.3212733 -45.38196,74.0015413 -7.92314,7.859289 -7.87969,7.798885 -6.25052,8.691774 0.60306,0.330544 1.83338,1.210152 2.73402,1.954689 0.90067,0.744564 2.74881,1.869652 4.10699,2.500233 1.59814,0.741971 2.96019,1.695741 3.8603,2.703195 0.76496,0.856218 2.05452,2.032979 2.86568,2.615063 3.98444,2.859193 6.26279,4.972284 7.2531,6.727024 1.14472,2.02835 1.87211,2.63105 4.01259,3.32465 2.14916,0.69644 4.21058,2.26674 5.95974,4.53988 0.87021,1.13094 1.98985,2.32331 2.48803,2.64975 0.49821,0.32644 1.38491,1.44238 1.97044,2.47991 0.74231,1.31527 1.65002,2.27505 2.9982,3.17022 4.38677,2.91263 8.11146,7.41587 9.18327,11.10276 0.7399,2.54524 0.94548,2.81043 4.11665,5.31085 3.67347,2.8965 3.78105,3.05808 7.07078,10.61836 0.46564,1.07011 1.44245,2.49886 2.17069,3.175 1.51188,1.40378 4.56875,7.5097 5.81692,11.61902 0.42934,1.41354 1.315,3.34695 1.96815,4.29646 0.70102,1.0191 1.3562,2.55572 1.59917,3.75068 0.79193,3.89472 3.01279,10.26602 5.13247,14.72433 0.94797,1.99387 1.0197,2.47475 1.23661,8.29027 0.16092,4.31379 0.44701,7.07694 0.94975,9.17223 1.53029,6.37778 2.11883,16.78173 1.20602,21.31965 -0.23159,1.15128 -0.42106,4.04034 -0.42106,6.42011 0,41.70408 -33.21314,106.12914 -75.16569,145.80238 -12.57604,11.89278 -24.46541,20.97566 -34.52164,26.37282 -1.66386,0.89297 -5.09,2.77746 -7.61368,4.18777 -2.52367,1.41028 -5.81728,3.05229 -7.31911,3.64887 -1.50183,0.59661 -4.13232,1.78869 -5.84549,2.64911 -1.71321,0.86043 -3.97585,1.8324 -5.02812,2.15995 -1.05227,0.32756 -3.5007,1.19436 -5.441,1.92625 -1.94027,0.73189 -4.40089,1.60383 -5.46804,1.93762 -1.06717,0.33378 -3.66379,1.39743 -5.77032,2.36361 -4.84542,2.22244 -7.06575,2.54579 -8.30953,1.21009 z M 204.79012,289.70566 c 0.63045,-0.46802 1.25267,-3.05604 1.08424,-4.50969 -0.14433,-1.24552 -0.5301,-23.70106 -0.70887,-41.26322 -0.20958,-20.58885 -0.22821,-24.46782 -0.14494,-30.1625 0.0971,-6.63848 -0.19878,-25.89694 -0.52838,-34.39584 -0.34694,-8.94686 -0.35369,-16.95868 -0.0196,-23.11529 0.2126,-3.91599 0.15227,-5.56027 -0.28934,-7.88826 -0.67752,-3.57156 -0.69244,-5.24566 -0.1442,-16.16065 0.38428,-7.6505 0.3675,-8.87529 -0.16185,-11.81806 -0.79039,-4.39404 -0.80491,-4.69715 -0.4791,-9.99659 0.552,-8.97832 -2.77469,-9.32826 -17.94468,-1.8877 -2.5245,1.2382 -5.71328,2.77648 -7.0862,3.41842 -16.59697,7.76015 -33.92599,30.33879 -41.8836,54.57174 -2.56185,7.80145 -4.56004,24.24022 -3.79799,31.24522 0.2113,1.9421 0.38415,5.96763 0.38415,8.94567 0,5.25685 0.0304,5.48 1.04275,7.65908 0.67255,1.44759 1.49977,4.49898 2.32998,8.59446 0.89,4.39058 1.59697,6.94873 2.29105,8.2903 2.63827,5.09936 4.59452,9.63308 5.40382,12.5236 0.78153,2.79133 1.08059,3.35616 2.47457,4.67402 1.80144,1.70307 4.19129,4.72451 5.7902,7.32041 0.59753,0.97015 1.81284,2.36922 2.7007,3.10907 0.88784,0.73983 2.15482,2.14783 2.81549,3.12888 0.66066,0.98105 1.96784,2.32109 2.90481,2.97789 0.93696,0.6568 2.19514,1.76739 2.79595,2.46798 1.059,1.23486 1.7843,1.69682 7.96513,5.07315 1.5984,0.87312 3.46871,2.19755 4.15628,2.94317 3.1224,3.38606 4.49387,4.52993 6.65607,5.55151 1.2759,0.60283 2.92971,1.61811 3.67517,2.25618 0.75054,0.64246 2.09651,1.33975 3.01628,1.56263 0.9135,0.22135 2.61342,0.72557 3.77759,1.12049 2.48224,0.84201 4.10183,1.26981 5.85758,1.54723 0.73702,0.11644 1.84915,0.71104 2.64583,1.41459 1.45854,1.28805 2.4525,1.52109 3.42104,0.80211 z M 280.58174,64.751888 c 1.87118,-0.387429 4.70617,-0.867939 6.29994,-1.067779 3.04585,-0.381926 15.99329,-6.101874 21.95488,-9.699281 10.40564,-6.279065 17.26256,-17.276524 19.33821,-31.015569 0.38129,-2.523861 0.92218,-6.028637 1.20198,-7.788381 0.8631,-5.4284164 0.97957,-21.6840167 0.1923,-26.835626 -0.81793,-5.352254 -1.96149,-14.377292 -2.65962,-20.990277 -0.29699,-2.813404 -0.8622,-6.811309 -1.256,-8.884232 -0.9297,-4.894005 -0.95457,-10.815423 -0.13013,-30.979657 0.19929,-4.873993 1.81417,-15.806629 3.16982,-21.459489 1.38882,-5.791205 1.38128,-5.802249 -3.07599,-4.510582 -1.65452,0.479467 -4.26046,1.044972 -5.79097,1.256681 -1.80676,0.249923 -4.08186,0.929711 -6.48689,1.938247 -4.33287,1.816974 -12.67188,3.869727 -17.99167,4.428898 -5.00255,0.525825 -6.56484,0.903213 -11.1737,2.699144 -3.54718,1.382231 -4.24129,1.535991 -6.9338,1.535991 -3.83312,0 -11.64413,0.907441 -13.86557,1.610823 -0.94445,0.299051 -3.6222,0.68416 -5.95053,0.855797 -2.32833,0.171638 -5.34458,0.495943 -6.70277,0.720675 -1.35821,0.224732 -5.40634,0.448956 -8.99583,0.498274 -11.31872,0.155519 -12.54538,2.468914 -10.0766,19.003796 0.62526,4.187719 0.64124,5.02535 0.21679,11.352807 -0.27556,4.108119 -0.35147,8.071731 -0.19036,9.942579 0.30265,3.515092 0.28067,22.283504 -0.0281,23.929107 -0.11075,0.590282 0.0626,2.577081 0.38526,4.415107 0.45596,2.597462 0.56348,5.0706575 0.48276,11.1029775 -0.0572,4.2686101 0.0257,10.3011101 0.18375,13.4055535 0.17772,3.487269 0.15169,6.857849 -0.0681,8.819444 -0.22521,2.00996 -0.23625,3.951684 -0.03,5.291666 0.17917,1.164167 0.29961,4.497917 0.26768,7.408333 -0.032,2.910417 -0.0333,5.847292 -0.003,6.526398 0.0303,0.67908 0.0915,6.07658 0.13597,11.994435 0.0859,11.413464 0.19368,12.176311 1.76681,12.500213 0.43098,0.08874 5.94294,0.350573 12.24886,0.581872 8.88939,0.326046 11.70252,0.540517 12.52133,0.954643 1.75733,0.888841 2.3672,0.9525 10.14338,1.059101 6.39546,0.08763 7.99796,0 10.89996,-0.601689 z m -8.51747,-46.50351 c -5.72752,-0.816293 -7.59555,-1.738127 -8.89339,-4.388617 -1.06891,-2.183022 -1.38144,-2.500726 -3.52316,-3.581638 -1.7884,-0.9025948 -2.51513,-2.1500046 -8.09287,-13.8911042 -0.43267,-0.9107593 -1.36969,-1.9610387 -2.42776,-2.7211893 -4.47148,-3.2124358 -1.77445,-12.6004235 7.03212,-24.4778365 9.42213,-12.707636 17.58376,-17.505161 20.68648,-12.159824 0.53752,0.926063 2.04052,3.191875 3.33999,5.03514 1.29945,1.843262 2.72518,4.065762 3.16825,4.938887 0.4431,0.873125 1.31935,2.188964 1.94728,2.924087 0.66035,0.773118 1.39005,2.221844 1.73086,3.436472 0.62439,2.225366 1.01618,2.601592 3.12028,2.996322 0.72496,0.136006 1.9454,0.701688 2.71208,1.25707 0.76671,0.555381 2.15498,1.195755 3.0851,1.42305 5.80117,1.417646 6.31812,6.193907 1.68389,15.5578097 C 290.61701,8.7743499 279.26528,19.27467 272.06427,18.248378 Z m -131.5861,1.317704 c -1.34588,-0.894688 -1.93651,-1.057434 -3.88057,-1.069313 -2.57018,-0.01561 -3.36108,-0.353272 -4.76321,-2.032953 -0.53348,-0.639101 -1.56911,-1.467644 -2.30137,-1.841235 -0.73226,-0.373565 -2.61348,-2.07727 -4.18047,-3.786021 -1.56702,-1.7087426 -3.6336,-3.5649799 -4.59245,-4.1249705 -2.16043,-1.2617556 -2.69365,-2.2263973 -2.646,-4.7867834 0.24432,-13.1246371 22.46519,-40.2458281 27.96239,-34.1288601 0.56671,0.630592 1.78871,1.985917 2.71555,3.011836 0.92686,1.02592 2.7822,2.594597 4.12297,3.485947 1.34081,0.891352 2.91944,2.060556 3.50814,2.598237 0.58867,0.537678 1.76001,1.170697 2.60295,1.406702 1.07193,0.300125 2.00723,0.944356 3.11165,2.143295 1.24294,1.349319 1.8927,1.764347 3.05271,1.949841 5.39406,0.862544 4.03037,9.0871464 -3.40312,20.5245281 -8.56083,13.1719349 -16.8261,19.6299369 -21.30917,16.6497499 z"
       id="path1" />
  </g>
</svg>
